# xmcd
#
# Track frame offsets: 
#        150
#        20362
#        34787
#        51126
#        72905
#        86304
#        101213
#        114219
#        131800
#        148705
#
# Disc length: 2313 seconds
#
# Revision: 0
# Processed by: cddbd v1.5.2PL0 Copyright (c) Steve Scherf et al.
# Submitted via: ExactAudioCopyFreeDBPlugin 1.0
#
DISCID=8409070a
DTITLE=Tone Silvia Holen - Blue Rose
DYEAR=2010
DGENRE=Country
TTITLE0=A Little Love
TTITLE1=Black Or White
TTITLE2=Speak To Me In Whispers
TTITLE3=What Lies Beyond Your Eyes
TTITLE4=When The Train Left Town
TTITLE5=It's Easy To Tell
TTITLE6=Diggin' Up Memories
TTITLE7=Blue Rose
TTITLE8=Sweet Memories
TTITLE9=Crow Town
EXTD=
EXTT0=
EXTT1=
EXTT2=
EXTT3=
EXTT4=
EXTT5=
EXTT6=
EXTT7=
EXTT8=
EXTT9=
PLAYORDER=
